<svg viewBox="0 0 99 30" fill="none" xmlns="http://www.w3.org/2000/svg">
  <path
    d="M36.4589 29V27.698C37.0563 27.2033 37.6349 26.7133 38.1949 26.228C38.7643 25.7427 39.2683 25.262 39.7069 24.786C40.1549 24.31 40.5096 23.848 40.7709 23.4C41.0416 22.9427 41.1769 22.4993 41.1769 22.07C41.1769 21.6687 41.0649 21.314 40.8409 21.006C40.6263 20.698 40.2669 20.544 39.7629 20.544C39.2496 20.544 38.8623 20.712 38.6009 21.048C38.3396 21.384 38.2089 21.79 38.2089 22.266H36.4729C36.4916 21.5473 36.6503 20.95 36.9489 20.474C37.2476 19.9887 37.6443 19.6293 38.1389 19.396C38.6336 19.1533 39.1889 19.032 39.8049 19.032C40.8036 19.032 41.5783 19.3073 42.1289 19.858C42.6889 20.3993 42.9689 21.104 42.9689 21.972C42.9689 22.5133 42.8429 23.0407 42.5909 23.554C42.3483 24.0673 42.0263 24.562 41.6249 25.038C41.2236 25.514 40.7896 25.962 40.3229 26.382C39.8563 26.7927 39.4036 27.1753 38.9649 27.53H43.2069V29H36.4589ZM49.2446 29.168C48.3393 29.168 47.5646 28.958 46.9206 28.538C46.2766 28.1087 45.7773 27.516 45.4226 26.76C45.0773 25.9947 44.9046 25.108 44.9046 24.1C44.9046 23.1013 45.0773 22.2193 45.4226 21.454C45.7773 20.6887 46.2766 20.096 46.9206 19.676C47.5646 19.2467 48.3393 19.032 49.2446 19.032C50.1499 19.032 50.9246 19.2467 51.5686 19.676C52.2126 20.096 52.7073 20.6887 53.0526 21.454C53.4073 22.2193 53.5846 23.1013 53.5846 24.1C53.5846 25.108 53.4073 25.9947 53.0526 26.76C52.7073 27.516 52.2126 28.1087 51.5686 28.538C50.9246 28.958 50.1499 29.168 49.2446 29.168ZM49.2446 27.558C49.9819 27.558 50.5839 27.25 51.0506 26.634C51.5173 26.018 51.7506 25.1733 51.7506 24.1C51.7506 23.0267 51.5173 22.182 51.0506 21.566C50.5839 20.95 49.9819 20.642 49.2446 20.642C48.4979 20.642 47.8913 20.95 47.4246 21.566C46.9673 22.182 46.7386 23.0267 46.7386 24.1C46.7386 25.1733 46.9673 26.018 47.4246 26.634C47.8913 27.25 48.4979 27.558 49.2446 27.558ZM57.7821 24.016C57.3341 24.016 56.9281 23.918 56.5641 23.722C56.2001 23.5167 55.9107 23.2273 55.6961 22.854C55.4814 22.4807 55.3741 22.0373 55.3741 21.524C55.3741 21.0107 55.4814 20.5673 55.6961 20.194C55.9107 19.8207 56.2001 19.536 56.5641 19.34C56.9281 19.1347 57.3387 19.032 57.7961 19.032C58.2441 19.032 58.6454 19.1347 59.0001 19.34C59.3641 19.536 59.6534 19.8207 59.8681 20.194C60.0827 20.5673 60.1901 21.0107 60.1901 21.524C60.1901 22.0373 60.0827 22.4807 59.8681 22.854C59.6534 23.2273 59.3641 23.5167 59.0001 23.722C58.6361 23.918 58.2301 24.016 57.7821 24.016ZM57.2501 29L62.7801 19.2H64.5301L59.0001 29H57.2501ZM57.7821 22.77C58.0527 22.77 58.2861 22.6673 58.4821 22.462C58.6781 22.2473 58.7761 21.9347 58.7761 21.524C58.7761 21.1133 58.6781 20.8007 58.4821 20.586C58.2954 20.3713 58.0621 20.264 57.7821 20.264C57.5021 20.264 57.2641 20.3713 57.0681 20.586C56.8814 20.8007 56.7881 21.1133 56.7881 21.524C56.7881 21.9347 56.8814 22.2473 57.0681 22.462C57.2641 22.6673 57.5021 22.77 57.7821 22.77ZM64.0541 29.168C63.6061 29.168 63.2001 29.07 62.8361 28.874C62.4721 28.6687 62.1827 28.3793 61.9681 28.006C61.7534 27.6327 61.6461 27.1893 61.6461 26.676C61.6461 26.1627 61.7534 25.724 61.9681 25.36C62.1827 24.9867 62.4721 24.702 62.8361 24.506C63.2001 24.3007 63.6107 24.198 64.0681 24.198C64.5161 24.198 64.9174 24.3007 65.2721 24.506C65.6361 24.702 65.9254 24.9867 66.1401 25.36C66.3547 25.724 66.4621 26.1627 66.4621 26.676C66.4621 27.1893 66.3547 27.6327 66.1401 28.006C65.9254 28.3793 65.6361 28.6687 65.2721 28.874C64.9174 29.07 64.5114 29.168 64.0541 29.168ZM64.0541 27.922C64.3341 27.922 64.5674 27.8193 64.7541 27.614C64.9501 27.3993 65.0481 27.0867 65.0481 26.676C65.0481 26.2653 64.9501 25.9527 64.7541 25.738C64.5674 25.5233 64.3341 25.416 64.0541 25.416C63.7741 25.416 63.5361 25.5233 63.3401 25.738C63.1534 25.9527 63.0601 26.2653 63.0601 26.676C63.0601 27.0867 63.1534 27.3993 63.3401 27.614C63.5361 27.8193 63.7741 27.922 64.0541 27.922ZM77.103 29.168C76.123 29.168 75.2643 28.9533 74.527 28.524C73.799 28.0947 73.225 27.502 72.805 26.746C72.3943 25.9807 72.189 25.0987 72.189 24.1C72.189 23.1013 72.3943 22.224 72.805 21.468C73.225 20.7027 73.799 20.1053 74.527 19.676C75.2643 19.2467 76.123 19.032 77.103 19.032C78.0737 19.032 78.9277 19.2467 79.665 19.676C80.4023 20.1053 80.9763 20.7027 81.387 21.468C81.7977 22.224 82.003 23.1013 82.003 24.1C82.003 25.0987 81.7977 25.9807 81.387 26.746C80.9763 27.502 80.4023 28.0947 79.665 28.524C78.9277 28.9533 78.0737 29.168 77.103 29.168ZM77.103 27.558C78.0363 27.558 78.7783 27.25 79.329 26.634C79.889 26.018 80.169 25.1733 80.169 24.1C80.169 23.0267 79.889 22.182 79.329 21.566C78.7783 20.95 78.0363 20.642 77.103 20.642C76.1697 20.642 75.423 20.95 74.863 21.566C74.303 22.182 74.023 23.0267 74.023 24.1C74.023 25.1733 74.303 26.018 74.863 26.634C75.423 27.25 76.1697 27.558 77.103 27.558ZM84.1852 29V19.2H90.5132V20.642H85.9772V23.386H89.6452V24.8H85.9772V29H84.1852ZM92.4961 29V19.2H98.8241V20.642H94.2881V23.386H97.9561V24.8H94.2881V29H92.4961Z"
    fill="#33AA62" />
  <path d="M27.1266 25.9997L26.1266 26.0047C12.3197 26.0747 1.07027 14.9386 1.00033 1.13169V1.13169" stroke="#33AA62"
    stroke-width="2" stroke-linecap="round" />
</svg>