<svg width="102" height="32" viewBox="0 0 102 32" fill="none" xmlns="http://www.w3.org/2000/svg">
  <path
    d="M0.458923 31V29.698C1.05626 29.2033 1.63492 28.7133 2.19492 28.228C2.76426 27.7427 3.26826 27.262 3.70692 26.786C4.15492 26.31 4.50959 25.848 4.77092 25.4C5.04159 24.9427 5.17692 24.4993 5.17692 24.07C5.17692 23.6687 5.06492 23.314 4.84092 23.006C4.62626 22.698 4.26692 22.544 3.76292 22.544C3.24959 22.544 2.86226 22.712 2.60092 23.048C2.33959 23.384 2.20892 23.79 2.20892 24.266H0.472923C0.491589 23.5473 0.650256 22.95 0.948923 22.474C1.24759 21.9887 1.64426 21.6293 2.13892 21.396C2.63359 21.1533 3.18892 21.032 3.80492 21.032C4.80359 21.032 5.57826 21.3073 6.12892 21.858C6.68892 22.3993 6.96892 23.104 6.96892 23.972C6.96892 24.5133 6.84292 25.0407 6.59092 25.554C6.34826 26.0673 6.02626 26.562 5.62492 27.038C5.22359 27.514 4.78959 27.962 4.32292 28.382C3.85626 28.7927 3.40359 29.1753 2.96492 29.53H7.20692V31H0.458923ZM13.2446 31.168C12.3393 31.168 11.5646 30.958 10.9206 30.538C10.2766 30.1087 9.77728 29.516 9.42261 28.76C9.07728 27.9947 8.90461 27.108 8.90461 26.1C8.90461 25.1013 9.07728 24.2193 9.42261 23.454C9.77728 22.6887 10.2766 22.096 10.9206 21.676C11.5646 21.2467 12.3393 21.032 13.2446 21.032C14.1499 21.032 14.9246 21.2467 15.5686 21.676C16.2126 22.096 16.7073 22.6887 17.0526 23.454C17.4073 24.2193 17.5846 25.1013 17.5846 26.1C17.5846 27.108 17.4073 27.9947 17.0526 28.76C16.7073 29.516 16.2126 30.1087 15.5686 30.538C14.9246 30.958 14.1499 31.168 13.2446 31.168ZM13.2446 29.558C13.9819 29.558 14.5839 29.25 15.0506 28.634C15.5173 28.018 15.7506 27.1733 15.7506 26.1C15.7506 25.0267 15.5173 24.182 15.0506 23.566C14.5839 22.95 13.9819 22.642 13.2446 22.642C12.4979 22.642 11.8913 22.95 11.4246 23.566C10.9673 24.182 10.7386 25.0267 10.7386 26.1C10.7386 27.1733 10.9673 28.018 11.4246 28.634C11.8913 29.25 12.4979 29.558 13.2446 29.558ZM21.7821 26.016C21.3341 26.016 20.9281 25.918 20.5641 25.722C20.2001 25.5167 19.9107 25.2273 19.6961 24.854C19.4814 24.4807 19.3741 24.0373 19.3741 23.524C19.3741 23.0107 19.4814 22.5673 19.6961 22.194C19.9107 21.8207 20.2001 21.536 20.5641 21.34C20.9281 21.1347 21.3387 21.032 21.7961 21.032C22.2441 21.032 22.6454 21.1347 23.0001 21.34C23.3641 21.536 23.6534 21.8207 23.8681 22.194C24.0827 22.5673 24.1901 23.0107 24.1901 23.524C24.1901 24.0373 24.0827 24.4807 23.8681 24.854C23.6534 25.2273 23.3641 25.5167 23.0001 25.722C22.6361 25.918 22.2301 26.016 21.7821 26.016ZM21.2501 31L26.7801 21.2H28.5301L23.0001 31H21.2501ZM21.7821 24.77C22.0527 24.77 22.2861 24.6673 22.4821 24.462C22.6781 24.2473 22.7761 23.9347 22.7761 23.524C22.7761 23.1133 22.6781 22.8007 22.4821 22.586C22.2954 22.3713 22.0621 22.264 21.7821 22.264C21.5021 22.264 21.2641 22.3713 21.0681 22.586C20.8814 22.8007 20.7881 23.1133 20.7881 23.524C20.7881 23.9347 20.8814 24.2473 21.0681 24.462C21.2641 24.6673 21.5021 24.77 21.7821 24.77ZM28.0541 31.168C27.6061 31.168 27.2001 31.07 26.8361 30.874C26.4721 30.6687 26.1827 30.3793 25.9681 30.006C25.7534 29.6327 25.6461 29.1893 25.6461 28.676C25.6461 28.1627 25.7534 27.724 25.9681 27.36C26.1827 26.9867 26.4721 26.702 26.8361 26.506C27.2001 26.3007 27.6107 26.198 28.0681 26.198C28.5161 26.198 28.9174 26.3007 29.2721 26.506C29.6361 26.702 29.9254 26.9867 30.1401 27.36C30.3547 27.724 30.4621 28.1627 30.4621 28.676C30.4621 29.1893 30.3547 29.6327 30.1401 30.006C29.9254 30.3793 29.6361 30.6687 29.2721 30.874C28.9174 31.07 28.5114 31.168 28.0541 31.168ZM28.0541 29.922C28.3341 29.922 28.5674 29.8193 28.7541 29.614C28.9501 29.3993 29.0481 29.0867 29.0481 28.676C29.0481 28.2653 28.9501 27.9527 28.7541 27.738C28.5674 27.5233 28.3341 27.416 28.0541 27.416C27.7741 27.416 27.5361 27.5233 27.3401 27.738C27.1534 27.9527 27.0601 28.2653 27.0601 28.676C27.0601 29.0867 27.1534 29.3993 27.3401 29.614C27.5361 29.8193 27.7741 29.922 28.0541 29.922ZM41.103 31.168C40.123 31.168 39.2643 30.9533 38.527 30.524C37.799 30.0947 37.225 29.502 36.805 28.746C36.3943 27.9807 36.189 27.0987 36.189 26.1C36.189 25.1013 36.3943 24.224 36.805 23.468C37.225 22.7027 37.799 22.1053 38.527 21.676C39.2643 21.2467 40.123 21.032 41.103 21.032C42.0737 21.032 42.9277 21.2467 43.665 21.676C44.4023 22.1053 44.9763 22.7027 45.387 23.468C45.7977 24.224 46.003 25.1013 46.003 26.1C46.003 27.0987 45.7977 27.9807 45.387 28.746C44.9763 29.502 44.4023 30.0947 43.665 30.524C42.9277 30.9533 42.0737 31.168 41.103 31.168ZM41.103 29.558C42.0363 29.558 42.7783 29.25 43.329 28.634C43.889 28.018 44.169 27.1733 44.169 26.1C44.169 25.0267 43.889 24.182 43.329 23.566C42.7783 22.95 42.0363 22.642 41.103 22.642C40.1697 22.642 39.423 22.95 38.863 23.566C38.303 24.182 38.023 25.0267 38.023 26.1C38.023 27.1733 38.303 28.018 38.863 28.634C39.423 29.25 40.1697 29.558 41.103 29.558ZM48.1852 31V21.2H54.5132V22.642H49.9772V25.386H53.6452V26.8H49.9772V31H48.1852ZM56.4961 31V21.2H62.8241V22.642H58.2881V25.386H61.9561V26.8H58.2881V31H56.4961Z"
    fill="#33AA62" />
  <path d="M71.1266 26.1503L75.8871 26.1262C89.6941 26.0563 100.83 14.8068 100.76 0.999893V0.999893" stroke="#33AA62"
    stroke-width="2" stroke-linecap="round" />
</svg>