<svg width="32" height="32" viewBox="0 0 32 32" fill="none" xmlns="http://www.w3.org/2000/svg">
  <path
    d="M8.03063 15.9385C5.2614 19.6237 5.23063 22.664 5.84601 23.1554C5.99986 23.2782 6.67678 23.1247 7.75371 21.8962C9.2614 20.1458 10.8614 16.4913 12.1845 12.5911C10.3691 13.5738 8.79986 14.9557 8.03063 15.9385Z"
    fill="url(#paint0_radial)" />
  <path
    d="M17.2615 0.122841C16.9846 2.08829 16.1846 5.71209 15.0462 9.58157C16.0615 9.39731 17.1077 9.58157 17.8154 10.1344C17.9692 10.2572 18.1538 10.4107 18.3077 10.6871C18.3692 10.6257 18.4615 10.5643 18.5231 10.5029C19.8769 9.55086 21.8154 9.45873 22.9538 10.2879C23.0769 10.38 23.2923 10.5643 23.4462 10.7793C23.5692 10.6871 23.6923 10.5643 23.8154 10.4722C25.1692 9.52015 27.1077 9.42802 28.2462 10.2572C28.7077 10.595 29.6923 11.5777 29.0154 13.5432C28.2154 15.8772 27.1077 18.5182 26.5538 19.8695H24.5846C24.9231 19.1017 26.3692 15.7543 27.3231 12.9597C27.5385 12.3455 27.4769 11.9155 27.2 11.6699C26.7385 11.3321 25.6615 11.3321 24.8923 11.8848C24.6769 12.0384 24.4615 12.2226 24.2462 12.5912C24.0308 12.929 23.6308 13.9117 23.4769 14.3724C22.7077 16.4914 21.8154 18.6718 21.2923 19.8695H19.3231C19.6615 19.1017 21.1077 15.7543 22.0615 12.9597C22.2769 12.3455 22.2154 11.9155 21.9385 11.6699C21.4769 11.3321 20.4 11.3321 19.6308 11.8848C19.2923 12.1305 18.8923 12.499 18.4923 13.5125C17.6615 15.9386 16.5231 18.6104 16 19.8081H14.0308C14.0308 19.8081 14.0308 19.7773 14.0308 19.7466C14.0615 19.7159 15.7538 15.8464 16.8308 12.6833C17.0462 12.0691 17.0154 11.6392 16.7385 11.4242C16.3077 11.0864 15.2615 11.0864 14.4308 11.6084C12.9846 16.1536 11.1385 20.6679 9.16923 22.9712C7.87692 24.476 6.8 24.8752 6.03077 24.8752C5.38462 24.8752 4.95385 24.5988 4.76923 24.4453C3.13846 23.1248 3.41538 19.071 6.64615 14.7716C7.75385 13.2975 10.2769 11.2399 13.0154 10.1344C14.2154 6.20345 15.1385 2.33397 15.5077 0C6.86154 0.368522 0 7.40115 0 16.0307C0 24.8445 7.16923 32 16 32C24.8308 32 32 24.8445 32 16.0307C32 7.61612 25.5077 0.737044 17.2615 0.122841Z"
    fill="url(#paint1_radial)" />
  <path
    d="M6.61541 14.8636C3.38464 19.163 3.10772 23.2475 4.73849 24.5373C4.9231 24.6908 5.35387 24.9672 6.00003 24.9672C6.76926 24.9672 7.84618 24.568 9.13849 23.0632C11.1077 20.7906 12.9539 16.2455 14.4 11.7004C15.2 11.2091 16.277 11.2091 16.7077 11.5162C16.9846 11.7311 17.0154 12.1611 16.8 12.7753C15.7231 15.9384 14 19.8079 14 19.8386C14 19.8386 14 19.8693 14 19.9H15.9693C16.4923 18.6716 17.6308 15.9999 18.4616 13.6045C18.8616 12.591 19.2616 12.1918 19.6 11.9768C20.3693 11.424 21.4462 11.424 21.9077 11.7619C22.2154 11.9768 22.2462 12.4068 22.0308 13.0517C21.077 15.8463 19.6308 19.163 19.2923 19.9615H21.2308C21.7539 18.7638 22.6462 16.5834 23.4154 14.4643C23.5693 14.0344 23.9693 13.0517 24.1846 12.6832C24.4308 12.3146 24.6462 12.1304 24.8308 11.9768C25.6 11.424 26.677 11.424 27.1385 11.7619C27.4462 11.9768 27.477 12.4068 27.2616 13.0517C26.3693 15.7849 24.9231 19.1016 24.5846 19.9H26.5539C27.1385 18.5488 28.2462 15.9077 29.0154 13.5738C29.6923 11.6083 28.7077 10.6256 28.2462 10.2878C27.1077 9.45859 25.1693 9.52001 23.8154 10.5027C23.6923 10.5949 23.5693 10.687 23.4462 10.8098C23.2616 10.5642 23.077 10.4106 22.9539 10.3185C21.8154 9.4893 19.877 9.55072 18.5231 10.5334C18.4308 10.5949 18.3693 10.6563 18.3077 10.7177C18.1231 10.472 17.9385 10.2878 17.8154 10.1649C17.1077 9.61214 16.0923 9.42788 15.0462 9.61214C16.1846 5.74266 16.9539 2.11886 17.2616 0.15341C16.8308 0.0919895 16.4308 0.0612793 16 0.0612793C15.8154 0.0612793 15.6308 0.0612793 15.4462 0.0612793C15.1077 2.39525 14.1846 6.29544 12.9539 10.1956C10.2462 11.3319 7.7231 13.3895 6.61541 14.8636ZM7.75387 21.8655C6.67695 23.0939 6.00003 23.2475 5.84618 23.1246C5.2308 22.6333 5.26157 19.5929 8.0308 15.9077C8.76926 14.925 10.3693 13.543 12.1846 12.5603C10.8616 16.4912 9.29234 20.115 7.75387 21.8655Z"
    fill="white" />
  <defs>
    <radialGradient id="paint0_radial" cx="0" cy="0" r="1" gradientUnits="userSpaceOnUse"
      gradientTransform="translate(11.3246 9.09889) scale(11.5171 11.495)">
      <stop stop-color="white" />
      <stop offset="1" stop-color="#832C42" />
    </radialGradient>
    <radialGradient id="paint1_radial" cx="0" cy="0" r="1" gradientUnits="userSpaceOnUse"
      gradientTransform="translate(11.3247 9.09899) scale(11.5171 11.495)">
      <stop stop-color="white" />
      <stop offset="1" stop-color="#832C42" />
    </radialGradient>
  </defs>
</svg>