<svg width="200" height="42" viewBox="0 0 200 42" fill="none" xmlns="http://www.w3.org/2000/svg">
  <path
    d="M10.3841 20.6276C6.80338 25.397 6.7636 29.3317 7.5593 29.9676C7.75823 30.1266 8.6335 29.9279 10.026 28.3381C11.9755 26.0726 14.0443 21.343 15.7551 16.2954C13.4077 17.5672 11.3787 19.3558 10.3841 20.6276Z"
    fill="url(#paint0_radial_6842_3553)" />
  <path
    d="M22.3195 0.158979C21.9614 2.70265 20.927 7.39254 19.455 12.4004C20.7679 12.1619 22.1206 12.4004 23.0356 13.1158C23.2346 13.2748 23.4733 13.4735 23.6722 13.8312C23.7518 13.7517 23.8711 13.6722 23.9507 13.5927C25.7012 12.3607 28.2077 12.2414 29.6798 13.3145C29.8389 13.4338 30.1174 13.6722 30.3163 13.9504C30.4755 13.8312 30.6346 13.6722 30.7938 13.553C32.5443 12.3209 35.0508 12.2017 36.5228 13.2748C37.1196 13.712 38.3927 14.9838 37.5175 17.5275C36.483 20.5481 35.0508 23.9661 34.3346 25.7149H31.7884C32.226 24.7213 34.0959 20.3891 35.3293 16.7723C35.6078 15.9774 35.5282 15.421 35.1701 15.103C34.5733 14.6659 33.1809 14.6659 32.1862 15.3813C31.9077 15.58 31.6292 15.8185 31.3507 16.2954C31.0723 16.7326 30.555 18.0044 30.3561 18.6006C29.3615 21.343 28.2077 24.1649 27.5314 25.7149H24.9851C25.4227 24.7213 27.2927 20.3891 28.526 16.7723C28.8045 15.9774 28.7249 15.421 28.3669 15.103C27.7701 14.6659 26.3776 14.6659 25.383 15.3813C24.9453 15.6992 24.4281 16.1762 23.9109 17.4877C22.8367 20.6276 21.3647 24.0854 20.6883 25.6354H18.1421C18.1421 25.6354 18.1421 25.5957 18.1421 25.5559C18.1818 25.5162 20.37 20.5083 21.7625 16.4146C22.041 15.6197 22.0012 15.0633 21.6432 14.7851C21.0862 14.3479 19.7335 14.3479 18.6593 15.0236C16.7894 20.9058 14.4022 26.7483 11.856 29.7292C10.185 31.6767 8.79253 32.1933 7.7979 32.1933C6.96241 32.1933 6.40542 31.8356 6.16671 31.6369C4.05809 29.9279 4.41616 24.6816 8.59361 19.1173C10.0259 17.2095 13.2883 14.5466 16.8291 13.1158C18.3808 8.02846 19.5743 3.02061 20.0517 0C8.8721 0.476938 0 9.57851 0 20.7468C0 32.1536 9.26995 41.4141 20.6883 41.4141C32.1067 41.4141 41.3766 32.1536 41.3766 20.7468C41.3766 9.85673 32.9819 0.953877 22.3195 0.158979Z"
    fill="url(#paint1_radial_6842_3553)" />
  <path
    d="M8.55354 19.2361C4.37609 24.8004 4.01802 30.0865 6.12664 31.7558C6.36535 31.9545 6.92234 32.3122 7.75783 32.3122C8.75246 32.3122 10.1449 31.7955 11.8159 29.848C14.3622 26.9069 16.7493 21.0246 18.6192 15.1424C19.6536 14.5065 21.0461 14.5065 21.6031 14.9039C21.9611 15.1821 22.0009 15.7386 21.7224 16.5335C20.33 20.6272 18.102 25.635 18.102 25.6748C18.102 25.6748 18.102 25.7145 18.102 25.7543H20.6482C21.3246 24.1645 22.7966 20.7067 23.8708 17.6066C24.388 16.295 24.9053 15.7783 25.3429 15.5001C26.3375 14.7847 27.73 14.7847 28.3268 15.2219C28.7246 15.5001 28.7644 16.0565 28.4859 16.8912C27.2526 20.508 25.3827 24.8004 24.945 25.8338H27.4515C28.1279 24.2837 29.2816 21.4618 30.2763 18.7194C30.4752 18.163 30.9924 16.8912 31.2709 16.4142C31.5892 15.9373 31.8677 15.6988 32.1064 15.5001C33.101 14.7847 34.4935 14.7847 35.0903 15.2219C35.4881 15.5001 35.5279 16.0565 35.2494 16.8912C34.0956 20.4285 32.2257 24.7209 31.7881 25.7543H34.3343C35.0903 24.0055 36.5225 20.5874 37.5172 17.5668C38.3924 15.0232 37.1193 13.7513 36.5225 13.3141C35.0505 12.241 32.544 12.3205 30.7935 13.5924C30.6343 13.7116 30.4752 13.8308 30.316 13.9898C30.0773 13.6718 29.8386 13.4731 29.6795 13.3539C28.2074 12.2808 25.701 12.3603 23.9504 13.6321C23.8311 13.7116 23.7515 13.7911 23.6719 13.8706C23.4332 13.5526 23.1945 13.3141 23.0353 13.1552C22.1203 12.4398 20.8074 12.2013 19.4547 12.4398C20.9267 7.4319 21.9214 2.74201 22.3192 0.198336C21.7622 0.118846 21.245 0.0791016 20.688 0.0791016C20.4493 0.0791016 20.2106 0.0791016 19.9719 0.0791016C19.5343 3.09971 18.3407 8.14731 16.7493 13.1949C13.2482 14.6655 9.9858 17.3284 8.55354 19.2361ZM10.0256 28.298C8.63311 29.8877 7.75783 30.0865 7.55891 29.9275C6.7632 29.2916 6.80299 25.3568 10.3837 20.5874C11.3385 19.3156 13.4073 17.5271 15.7547 16.2553C14.0439 21.3426 12.0148 26.0325 10.0256 28.298Z"
    fill="white" />
  <path
    d="M53.0734 26.3506C53.0734 29.5302 51.8003 30.5635 48.896 30.5635H46.8271V27.225H47.6626C48.4981 27.1852 48.9756 26.9468 48.9756 26.0724V13.7515H53.1132V26.3506H53.0734Z"
    fill="black" />
  <path
    d="M67.3565 26.3506H63.3382V24.6416H63.2985C62.5028 25.9134 60.9113 26.7083 59.4791 26.7083C55.8586 26.7083 54.8242 24.6416 54.8242 21.3428V13.7913H58.9619V21.1043C58.9619 22.7736 59.678 23.3698 60.9909 23.3698C61.906 23.3698 63.2587 22.7736 63.2587 20.5479V13.7913H67.3963V26.3506H67.3565Z"
    fill="black" />
  <path
    d="M72.21 22.2171C72.21 22.853 72.4885 23.2902 72.8863 23.6082C73.2842 23.8864 73.8412 24.0454 74.3981 24.0454C75.1938 24.0454 76.3476 23.6877 76.3476 22.694C76.3476 21.7402 75.0745 21.5414 74.3186 21.3427C71.7325 20.7068 68.4702 20.6273 68.4702 17.2093C68.4702 14.1886 71.7325 13.354 74.239 13.354C77.024 13.354 79.8885 14.1489 80.0476 17.408H76.2283C76.2283 16.8913 76.0293 16.5336 75.7111 16.3349C75.353 16.1361 74.9154 16.0169 74.3981 16.0169C73.7218 16.0169 72.6078 16.0964 72.6078 16.9708C72.6078 18.1631 75.3928 18.3619 77.2627 18.799C79.8089 19.3157 80.4455 21.144 80.4455 22.1774C80.4455 25.5557 77.2627 26.6685 74.3981 26.6685C71.4143 26.6685 68.3508 25.6749 68.2314 22.1774H72.21V22.2171Z"
    fill="black" />
  <path
    d="M85.1797 13.7517H89.198V15.4608H89.2378C89.9937 14.1889 91.3066 13.394 92.8582 13.394C94.4496 13.394 95.8421 13.9107 96.5185 15.421C97.5131 14.0697 98.7464 13.394 100.457 13.394C104.476 13.394 104.913 16.4147 104.913 18.8391V26.3509H100.775V18.9583C100.775 17.607 100.139 16.8121 99.0647 16.8121C97.2744 16.8121 97.1153 18.1634 97.1153 20.1904V26.3509H92.9776V19.1968C92.9776 17.7262 92.54 16.8121 91.426 16.8121C89.9539 16.8121 89.3173 17.6467 89.3173 20.2302V26.3509H85.1797V13.7517Z"
    fill="black" />
  <path
    d="M110.045 21.0649C110.125 22.7739 111.119 23.9265 112.87 23.9265C113.865 23.9265 114.819 23.4495 115.217 22.5354H119.076C118.32 25.4368 115.615 26.7086 112.83 26.7086C108.732 26.7086 105.947 24.2444 105.947 20.0315C105.947 16.1762 109.011 13.4338 112.751 13.4338C117.246 13.4338 119.514 16.8122 119.315 21.1046H110.045V21.0649ZM115.138 18.7596C115.058 17.3686 114.063 16.1762 112.671 16.1762C111.199 16.1762 110.244 17.2096 110.005 18.7596H115.138Z"
    fill="black" />
  <path
    d="M132.683 26.3507H128.745V24.8802H128.705C127.909 26.0725 126.676 26.7084 125.243 26.7084C121.305 26.7084 119.634 23.3301 119.634 19.7928C119.634 16.5337 121.384 13.4337 124.965 13.4337C126.517 13.4337 127.71 14.0298 128.546 15.1427H128.585V9.02197H132.723V26.3507H132.683ZM123.732 19.9121C123.732 21.6211 124.368 23.5288 126.238 23.5288C128.267 23.5288 128.705 21.6211 128.705 20.0313C128.705 18.203 128.068 16.5338 126.238 16.5338C124.328 16.5735 123.732 18.3223 123.732 19.9121Z"
    fill="black" />
  <path d="M138.611 12.2019H134.474V9.06201H138.611V12.2019ZM134.474 13.7519H138.611V26.3113H134.474V13.7519Z"
    fill="black" />
  <path
    d="M140.203 17.6467C140.283 16.0172 141.038 14.9441 142.152 14.2684C143.266 13.6325 144.739 13.394 146.171 13.394C149.155 13.394 152.059 14.03 152.059 17.607V23.1315C152.059 24.2046 152.059 25.3572 152.536 26.3509H148.399C148.24 25.9534 148.2 25.556 148.16 25.1585C147.086 26.2714 145.534 26.7086 144.022 26.7086C141.635 26.7086 139.726 25.5162 139.726 22.8931C139.726 18.7993 144.182 19.1173 147.046 18.5211C147.762 18.3622 148.12 18.1237 148.12 17.3685C148.12 16.4147 146.966 16.0569 146.131 16.0569C144.977 16.0569 144.261 16.5736 144.062 17.6467H140.203ZM145.534 24.1649C147.484 24.1649 148.16 23.052 148.041 20.4686C147.444 20.8263 146.41 20.9058 145.494 21.1443C144.579 21.343 143.784 21.7405 143.784 22.7341C143.823 23.7675 144.619 24.1649 145.534 24.1649Z"
    fill="black" />
  <path
    d="M161.21 16.4144H158.664V22.1377C158.664 23.1313 159.26 23.33 160.136 23.33C160.494 23.33 160.852 23.2903 161.21 23.2903V26.3109C160.454 26.3507 159.698 26.4301 158.942 26.4301C155.441 26.4301 154.526 25.3968 154.526 21.9787V16.4144H152.457V13.7515H154.526V9.93604H158.664V13.7515H161.21V16.4144Z"
    fill="black" />
  <path d="M166.183 12.2014H162.045V9.06152H166.183V12.2014ZM162.045 13.7514H166.183V26.3108H162.045V13.7514Z"
    fill="black" />
  <path
    d="M173.98 13.394C177.879 13.394 180.624 16.2954 180.624 20.0712C180.624 23.8469 177.879 26.7086 173.98 26.7086C170.081 26.7086 167.376 23.8469 167.376 20.0712C167.376 16.2954 170.081 13.394 173.98 13.394ZM173.98 23.5687C175.89 23.5687 176.487 21.661 176.487 20.0712C176.487 18.4814 175.89 16.5736 173.98 16.5736C172.071 16.5736 171.474 18.4814 171.474 20.0712C171.474 21.661 172.071 23.5687 173.98 23.5687Z"
    fill="black" />
  <path
    d="M181.619 13.7517H185.637V15.4608H185.677C186.433 14.1889 188.144 13.394 189.616 13.394C193.793 13.394 194.151 16.4544 194.151 18.2827V26.3509H190.014V20.2699C190.014 18.5609 190.212 16.8121 187.945 16.8121C186.393 16.8121 185.717 18.1237 185.717 19.5148V26.3906H181.579V13.7517H181.619Z"
    fill="black" />
  <path d="M53.0732 8.02832H48.9355V12.1618H53.0732V8.02832Z" fill="black" />
  <path d="M200 22.1777H195.862V26.3112H200V22.1777Z" fill="black" />
  <path
    d="M47.2725 35.3132H50.4967C51.7367 35.3132 52.2824 35.8583 52.2824 36.7503C52.2824 37.444 51.8855 37.7909 51.4391 37.9891C52.084 38.1377 52.5304 38.5837 52.5304 39.4261C52.5304 40.2685 51.9352 41.1109 50.6951 41.1109H47.2725V35.3132ZM50.4967 37.6918C51.1415 37.6918 51.4391 37.3449 51.4391 36.8989C51.4391 36.3538 51.1415 36.0565 50.4471 36.0565H48.1653V37.6918H50.4967ZM50.4471 40.3676C51.3895 40.3676 51.6375 39.8721 51.6375 39.3765C51.6375 38.9306 51.3895 38.435 50.4967 38.435H48.1157V40.3181H50.4471V40.3676Z"
    fill="black" />
  <path
    d="M54.4148 35.3125H59.0775V36.0558H55.2581V37.7406H58.9287V38.4839H55.2581V40.3669H59.1271V41.1102H54.3652V35.3125H54.4148Z"
    fill="black" />
  <path d="M62.4999 36.0558H60.3174V35.3125H65.5753V36.0558H63.3928V41.1102H62.5495V36.0558H62.4999Z" fill="black" />
  <path d="M68.5517 36.0558H66.3691V35.3125H71.627V36.0558H69.4445V41.1102H68.6013V36.0558H68.5517Z" fill="black" />
  <path
    d="M73.0652 35.3125H77.7279V36.0558H73.9085V37.7406H77.5791V38.4839H73.9085V40.3669H77.7775V41.1102H73.0156V35.3125H73.0652Z"
    fill="black" />
  <path
    d="M79.6123 35.3125H83.1837C84.3246 35.3125 84.771 36.1053 84.771 36.8486C84.771 37.5424 84.4238 38.0874 83.779 38.2857C84.275 38.3352 84.5726 38.8307 84.6222 39.5245C84.6718 40.6146 84.7214 40.8624 84.9198 41.1102H84.027C83.8782 40.9615 83.8782 40.7137 83.8286 40.02C83.779 38.9794 83.4317 38.6821 82.6877 38.6821H80.4556V41.1597H79.6123V35.3125ZM82.8861 37.8892C83.7294 37.8892 83.9278 37.3937 83.9278 36.9477C83.9278 36.4027 83.5805 36.0062 82.8861 36.0062H80.4556V37.8397H82.8861V37.8892Z"
    fill="black" />
  <path
    d="M90.0303 35.3125H92.9569C94.693 35.3125 95.4866 36.4522 95.4866 38.137C95.4866 39.7722 94.7922 41.1102 93.0065 41.1102H90.0303V35.3125ZM93.0065 40.3669C94.3953 40.3669 94.693 39.1776 94.693 38.137C94.693 37.0964 94.3458 36.0558 92.8577 36.0558H90.9231V40.3669H93.0065Z"
    fill="black" />
  <path d="M97.3711 35.3125H98.2143V41.1102H97.3711V35.3125Z" fill="black" />
  <path
    d="M100.744 39.2271C100.744 40.2677 101.736 40.5155 102.629 40.5155C103.522 40.5155 104.217 40.1686 104.217 39.5245C104.217 38.9794 103.82 38.7812 103.125 38.6821L101.786 38.4838C101.092 38.3847 100.05 38.0874 100.05 36.9477C100.05 35.9071 100.893 35.1638 102.381 35.1638C103.522 35.1638 104.762 35.6098 104.861 36.9973H103.969C103.919 36.5513 103.621 35.9071 102.232 35.9071C101.588 35.9071 100.893 36.1549 100.893 36.8486C100.893 37.1955 101.141 37.4928 101.836 37.5919L103.274 37.8397C103.721 37.9388 105.01 38.137 105.01 39.3262C105.01 40.8128 103.671 41.2092 102.53 41.2092C101.24 41.2092 99.8516 40.7633 99.8516 39.1776H100.744V39.2271Z"
    fill="black" />
  <path
    d="M106.646 35.3125H109.623C110.912 35.3125 111.557 35.9071 111.557 36.9973C111.557 38.0874 110.912 38.8307 109.672 38.8307H107.49V41.1102H106.646V35.3125ZM109.573 38.0379C110.416 38.0379 110.714 37.5919 110.714 36.9973C110.714 36.4522 110.367 36.0558 109.722 36.0558H107.49V38.0379H109.573Z"
    fill="black" />
  <path
    d="M113.244 35.3125H114.087V39.029C114.087 40.0696 114.782 40.5155 115.873 40.5155C116.915 40.5155 117.659 40.0696 117.659 39.029V35.3125H118.502V38.9298C118.502 40.466 117.659 41.2588 115.873 41.2588C114.087 41.2588 113.244 40.466 113.244 38.9298V35.3125Z"
    fill="black" />
  <path d="M122.123 36.0558H119.94V35.3125H125.198V36.0558H123.016V41.1102H122.173V36.0558H122.123Z" fill="black" />
  <path
    d="M126.587 35.3125H131.249V36.0558H127.43V37.7406H131.101V38.4839H127.43V40.3669H131.299V41.1102H126.537V35.3125H126.587Z"
    fill="black" />
  <path
    d="M136.657 35.3125H140.229C141.37 35.3125 141.816 36.1053 141.816 36.8486C141.816 37.5424 141.469 38.0874 140.824 38.2857C141.32 38.3352 141.618 38.8307 141.667 39.5245C141.717 40.6146 141.766 40.8624 141.965 41.1102H141.072C140.923 40.9615 140.923 40.7137 140.873 40.02C140.824 38.9794 140.477 38.6821 139.733 38.6821H137.5V41.1597H136.657V35.3125ZM139.931 37.8892C140.774 37.8892 140.973 37.3937 140.973 36.9477C140.973 36.4027 140.625 36.0062 139.931 36.0062H137.5V37.8397H139.931V37.8892Z"
    fill="black" />
  <path
    d="M143.601 35.3125H148.264V36.0558H144.445V37.7406H148.115V38.4839H144.445V40.3669H148.314V41.1102H143.552V35.3125H143.601Z"
    fill="black" />
  <path
    d="M150.496 39.2271C150.496 40.2677 151.488 40.5155 152.381 40.5155C153.273 40.5155 153.968 40.1686 153.968 39.5245C153.968 38.9794 153.571 38.7812 152.877 38.6821L151.537 38.4838C150.843 38.3847 149.801 38.0874 149.801 36.9477C149.801 35.9071 150.644 35.1638 152.133 35.1638C153.273 35.1638 154.513 35.6098 154.613 36.9973H153.769C153.72 36.5513 153.422 35.9071 152.033 35.9071C151.388 35.9071 150.694 36.1549 150.694 36.8486C150.694 37.1955 150.942 37.4928 151.636 37.5919L153.075 37.8397C153.521 37.9388 154.811 38.137 154.811 39.3262C154.811 40.8128 153.472 41.2092 152.331 41.2092C151.041 41.2092 149.652 40.7633 149.652 39.1776H150.496V39.2271Z"
    fill="black" />
  <path
    d="M159.226 35.1638C161.557 35.1638 162.45 36.6999 162.45 38.1865C162.45 39.6731 161.557 41.2092 159.226 41.2092C156.895 41.2092 156.002 39.6731 156.002 38.1865C156.002 36.6999 156.895 35.1638 159.226 35.1638ZM159.226 35.9071C157.887 35.9071 156.845 36.6504 156.845 38.1865C156.845 39.7227 157.887 40.466 159.226 40.466C160.565 40.466 161.607 39.7227 161.607 38.1865C161.607 36.6504 160.565 35.9071 159.226 35.9071Z"
    fill="black" />
  <path d="M164.236 35.3125H165.08V40.3669H168.601V41.1102H164.236V35.3125Z" fill="black" />
  <path
    d="M170.089 35.3125H170.932V39.029C170.932 40.0696 171.627 40.5155 172.718 40.5155C173.759 40.5155 174.504 40.0696 174.504 39.029V35.3125H175.347V38.9298C175.347 40.466 174.504 41.2588 172.718 41.2588C170.932 41.2588 170.089 40.466 170.089 38.9298V35.3125Z"
    fill="black" />
  <path d="M178.968 36.0558H176.785V35.3125H182.043V36.0558H179.861V41.1102H179.017V36.0558H178.968Z" fill="black" />
  <path d="M183.531 35.3125H184.375V41.1102H183.531V35.3125Z" fill="black" />
  <path
    d="M189.434 35.1638C191.765 35.1638 192.658 36.6999 192.658 38.1865C192.658 39.6731 191.765 41.2092 189.434 41.2092C187.103 41.2092 186.21 39.6731 186.21 38.1865C186.21 36.6999 187.103 35.1638 189.434 35.1638ZM189.434 35.9071C188.095 35.9071 187.053 36.6504 187.053 38.1865C187.053 39.7227 188.095 40.466 189.434 40.466C190.773 40.466 191.815 39.7227 191.815 38.1865C191.815 36.6504 190.773 35.9071 189.434 35.9071Z"
    fill="black" />
  <path
    d="M195.288 36.5018V41.1102H194.444V35.3125H195.436L199.157 39.9209V35.3125H200V41.1102H199.008L195.288 36.5018Z"
    fill="black" />
  <defs>
    <radialGradient id="paint0_radial_6842_3553" cx="0" cy="0" r="1" gradientUnits="userSpaceOnUse"
      gradientTransform="translate(14.6432 11.7759) scale(14.8918 14.8767)">
      <stop stop-color="white" />
      <stop offset="1" stop-color="#832C42" />
    </radialGradient>
    <radialGradient id="paint1_radial_6842_3553" cx="0" cy="0" r="1" gradientUnits="userSpaceOnUse"
      gradientTransform="translate(14.6431 11.7758) scale(14.8918 14.8767)">
      <stop stop-color="white" />
      <stop offset="1" stop-color="#832C42" />
    </radialGradient>
  </defs>
</svg>