<svg width="150" height="31" viewBox="0 0 150 31" fill="none" xmlns="http://www.w3.org/2000/svg">
  <path
    d="M7.78804 15.4403C5.10254 19.0104 5.0727 21.9557 5.66948 22.4317C5.81867 22.5507 6.47513 22.4019 7.51949 21.2119C8.9816 19.5161 10.5332 15.9758 11.8163 12.1975C10.0558 13.1495 8.53401 14.4883 7.78804 15.4403Z"
    fill="url(#paint0_radial_7022_4356)" />
  <path
    d="M16.7396 0.119002C16.4711 2.02303 15.6953 5.53359 14.5912 9.28215C15.5759 9.10365 16.5904 9.28215 17.2767 9.81766C17.4259 9.93666 17.605 10.0854 17.7541 10.3532C17.8138 10.2937 17.9033 10.2342 17.963 10.1747C19.2759 9.2524 21.1558 9.16315 22.2598 9.96641C22.3792 10.0557 22.588 10.2342 22.7372 10.4424C22.8566 10.3532 22.976 10.2342 23.0953 10.1449C24.4082 9.22265 26.2881 9.1334 27.3921 9.93666C27.8397 10.2639 28.7945 11.2159 28.1381 13.12C27.3623 15.381 26.2881 17.9395 25.751 19.2486H23.8413C24.1695 18.5048 25.5719 15.262 26.4969 12.5547C26.7058 11.9597 26.6461 11.5432 26.3776 11.3052C25.93 10.9779 24.8856 10.9779 24.1397 11.5134C23.9308 11.6622 23.7219 11.8407 23.5131 12.1977C23.3042 12.525 22.9163 13.477 22.7671 13.9232C22.0211 15.976 21.1558 18.0883 20.6485 19.2486H18.7388C19.0671 18.5048 20.4695 15.262 21.3945 12.5547C21.6034 11.9597 21.5437 11.5432 21.2751 11.3052C20.8276 10.9779 19.7832 10.9779 19.0372 11.5134C18.709 11.7514 18.3211 12.1084 17.9332 13.0902C17.1275 15.4405 16.0235 18.0288 15.5162 19.1891H13.6065C13.6065 19.1891 13.6065 19.1593 13.6065 19.1296C13.6364 19.0998 15.2775 15.3512 16.3219 12.2869C16.5308 11.6919 16.5009 11.2754 16.2324 11.0672C15.8146 10.7399 14.8001 10.7399 13.9944 11.2457C12.592 15.6488 10.8017 20.0221 8.89199 22.2534C7.63876 23.7111 6.5944 24.0979 5.84842 24.0979C5.22181 24.0979 4.80406 23.8301 4.62503 23.6814C3.04357 22.4021 3.31212 18.475 6.4452 14.31C7.5194 12.882 9.96619 10.8887 12.6219 9.81766C13.7856 6.0096 14.6807 2.26104 15.0388 0C6.65408 0.357006 0 7.16987 0 15.5298C0 24.0681 6.95246 31 15.5162 31C24.08 31 31.0325 24.0681 31.0325 15.5298C31.0325 7.37812 24.7364 0.714012 16.7396 0.119002Z"
    fill="url(#paint1_radial_7022_4356)" />
  <path
    d="M6.41466 14.3991C3.28158 18.5641 3.01303 22.5209 4.59449 23.7705C4.77352 23.9192 5.19127 24.187 5.81789 24.187C6.56386 24.187 7.60822 23.8002 8.86145 22.3424C10.7711 20.1409 12.5615 15.7378 13.9639 11.3348C14.7397 10.8588 15.7841 10.8587 16.2018 11.1563C16.4704 11.3645 16.5002 11.781 16.2913 12.376C15.247 15.4403 13.576 19.1889 13.576 19.2186C13.576 19.2186 13.576 19.2484 13.576 19.2781H15.4857C15.993 18.0881 17.097 15.4998 17.9026 13.1793C18.2905 12.1975 18.6785 11.8108 19.0067 11.6025C19.7527 11.067 20.797 11.067 21.2446 11.3943C21.543 11.6025 21.5728 12.019 21.364 12.6438C20.4389 15.3511 19.0365 18.5641 18.7083 19.3376H20.5881C21.0954 18.1774 21.9607 16.0651 22.7067 14.0123C22.8559 13.5958 23.2438 12.6438 23.4527 12.2868C23.6914 11.9298 23.9003 11.7513 24.0793 11.6025C24.8253 11.067 25.8696 11.067 26.3172 11.3943C26.6156 11.6025 26.6454 12.019 26.4366 12.6438C25.5712 15.2916 24.1688 18.5046 23.8406 19.2781H25.7503C26.3172 17.9691 27.3914 15.4106 28.1374 13.1495C28.7938 11.2455 27.839 10.2935 27.3914 9.96624C26.2874 9.16297 24.4075 9.22247 23.0946 10.1745C22.9753 10.2637 22.8559 10.353 22.7365 10.472C22.5575 10.234 22.3785 10.0852 22.2591 9.99599C21.1551 9.19272 19.2752 9.25222 17.9623 10.2042C17.8728 10.2637 17.8131 10.3232 17.7534 10.3827C17.5744 10.1447 17.3954 9.96624 17.276 9.84723C16.5897 9.31173 15.605 9.13322 14.5905 9.31172C15.6946 5.56316 16.4405 2.05261 16.7389 0.148578C16.3212 0.0890767 15.9333 0.0593262 15.5155 0.0593262C15.3365 0.0593262 15.1575 0.0593262 14.9784 0.0593262C14.6502 2.32036 13.755 6.09867 12.5615 9.87698C9.93565 10.9778 7.48886 12.971 6.41466 14.3991ZM7.5187 21.1822C6.47434 22.3722 5.81789 22.5209 5.66869 22.4019C5.07191 21.9259 5.10175 18.9806 7.78725 15.4106C8.50339 14.4586 10.055 13.1198 11.8155 12.1678C10.5324 15.9758 9.01065 19.4864 7.5187 21.1822Z"
    fill="white" />
  <path
    d="M39.8058 19.7244C39.8058 22.1044 38.851 22.8779 36.6727 22.8779H35.1211V20.3789H35.7477C36.3743 20.3491 36.7324 20.1706 36.7324 19.5161V10.2935H39.8356V19.7244H39.8058Z"
    fill="black" />
  <path
    d="M50.5184 19.7244H47.5047V18.4451H47.4748C46.8781 19.3971 45.6845 19.9921 44.6103 19.9921C41.895 19.9921 41.1191 18.4451 41.1191 15.9758V10.3232H44.2224V15.7973C44.2224 17.0469 44.7595 17.4931 45.7442 17.4931C46.4305 17.4931 47.445 17.0468 47.445 15.3808V10.3232H50.5482V19.7244H50.5184Z"
    fill="black" />
  <path
    d="M54.1577 16.6305C54.1577 17.1065 54.3666 17.4337 54.665 17.6717C54.9634 17.88 55.3811 17.999 55.7989 17.999C56.3956 17.999 57.261 17.7312 57.261 16.9875C57.261 16.2734 56.3061 16.1247 55.7392 15.9759C53.7997 15.4999 51.3529 15.4404 51.3529 12.8819C51.3529 10.6209 53.7997 9.99609 55.6795 9.99609C57.7682 9.99609 59.9166 10.5911 60.036 13.0306H57.1715C57.1715 12.6439 57.0223 12.3761 56.7835 12.2274C56.515 12.0786 56.1868 11.9894 55.7989 11.9894C55.2916 11.9894 54.4561 12.0489 54.4561 12.7034C54.4561 13.5959 56.5448 13.7447 57.9473 14.0719C59.857 14.4587 60.3344 15.8272 60.3344 16.6007C60.3344 19.1295 57.9473 19.9625 55.7989 19.9625C53.5609 19.9625 51.2633 19.2187 51.1738 16.6007H54.1577V16.6305Z"
    fill="black" />
  <path
    d="M63.8848 10.2936H66.8985V11.5729H66.9283C67.4953 10.6209 68.48 10.0259 69.6437 10.0259C70.8372 10.0259 71.8816 10.4126 72.3889 11.5432C73.1348 10.5316 74.0598 10.0259 75.3429 10.0259C78.3566 10.0259 78.6849 12.2869 78.6849 14.1017V19.7245H75.5816V14.1909C75.5816 13.1794 75.1042 12.5844 74.2985 12.5844C72.9558 12.5844 72.8364 13.5959 72.8364 15.1132V19.7245H69.7332V14.3694C69.7332 13.2687 69.405 12.5844 68.5695 12.5844C67.4654 12.5844 66.988 13.2092 66.988 15.143V19.7245H63.8848V10.2936Z"
    fill="black" />
  <path
    d="M82.5343 15.7678C82.594 17.047 83.34 17.9098 84.6529 17.9098C85.3989 17.9098 86.115 17.5528 86.4134 16.8685H89.3078C88.7408 19.0403 86.7118 19.9923 84.6231 19.9923C81.5497 19.9923 79.4609 18.1478 79.4609 14.9942C79.4609 12.1084 81.7585 10.0557 84.5634 10.0557C87.9352 10.0557 89.636 12.5845 89.4868 15.7975H82.5343V15.7678ZM86.3537 14.0422C86.294 13.001 85.5481 12.1084 84.5037 12.1084C83.3997 12.1084 82.6835 12.882 82.5045 14.0422H86.3537Z"
    fill="black" />
  <path
    d="M99.5137 19.7246H96.5597V18.6239H96.5298C95.9331 19.5164 95.008 19.9924 93.9338 19.9924C90.9798 19.9924 89.7266 17.4636 89.7266 14.8158C89.7266 12.3763 91.0395 10.0557 93.725 10.0557C94.8887 10.0557 95.7839 10.502 96.4105 11.335H96.4403V6.75342H99.5436V19.7246H99.5137ZM92.8 14.905C92.8 16.1843 93.2774 17.6123 94.6798 17.6123C96.2016 17.6123 96.5298 16.1843 96.5298 14.9943C96.5298 13.6258 96.0524 12.3763 94.6798 12.3763C93.2475 12.406 92.8 13.715 92.8 14.905Z"
    fill="black" />
  <path d="M103.959 9.13349H100.855V6.7832H103.959V9.13349ZM100.855 10.2938H103.959V19.6949H100.855V10.2938Z"
    fill="black" />
  <path
    d="M105.153 13.2092C105.213 11.9894 105.78 11.1861 106.615 10.6804C107.451 10.2044 108.555 10.0259 109.629 10.0259C111.867 10.0259 114.045 10.5019 114.045 13.1794V17.3147C114.045 18.118 114.045 18.9808 114.403 19.7245H111.3C111.18 19.427 111.151 19.1295 111.121 18.832C110.315 19.665 109.151 19.9923 108.018 19.9923C106.227 19.9923 104.795 19.0998 104.795 17.1362C104.795 14.0719 108.137 14.3099 110.285 13.8637C110.822 13.7447 111.091 13.5662 111.091 13.0009C111.091 12.2869 110.226 12.0192 109.599 12.0192C108.734 12.0192 108.197 12.4059 108.047 13.2092H105.153ZM109.151 18.0883C110.614 18.0883 111.121 17.2552 111.031 15.3215C110.584 15.5892 109.808 15.6487 109.122 15.8272C108.435 15.976 107.838 16.2735 107.838 17.0172C107.868 17.7908 108.465 18.0883 109.151 18.0883Z"
    fill="black" />
  <path
    d="M120.908 12.2868H118.999V16.5709C118.999 17.3147 119.446 17.4634 120.103 17.4634C120.371 17.4634 120.64 17.4337 120.908 17.4337V19.6947C120.341 19.7244 119.774 19.7839 119.207 19.7839C116.582 19.7839 115.895 19.0104 115.895 16.4519V12.2868H114.344V10.2935H115.895V7.4375H118.999V10.2935H120.908V12.2868Z"
    fill="black" />
  <path d="M124.638 9.13325H121.535V6.78296H124.638V9.13325ZM121.535 10.2935H124.638V19.6947H121.535V10.2935Z"
    fill="black" />
  <path
    d="M130.486 10.0259C133.411 10.0259 135.47 12.1977 135.47 15.024C135.47 17.8503 133.411 19.9923 130.486 19.9923C127.562 19.9923 125.533 17.8503 125.533 15.024C125.533 12.1977 127.562 10.0259 130.486 10.0259ZM130.486 17.642C131.919 17.642 132.366 16.214 132.366 15.024C132.366 13.8339 131.919 12.4059 130.486 12.4059C129.054 12.4059 128.607 13.8339 128.607 15.024C128.607 16.214 129.054 17.642 130.486 17.642Z"
    fill="black" />
  <path
    d="M136.215 10.2936H139.229V11.5729H139.259C139.826 10.6209 141.109 10.0259 142.213 10.0259C145.346 10.0259 145.615 12.3167 145.615 13.6852V19.7245H142.511V15.1727C142.511 13.8934 142.661 12.5844 140.96 12.5844C139.796 12.5844 139.289 13.5662 139.289 14.6075V19.7543H136.186V10.2936H136.215Z"
    fill="black" />
  <path d="M39.8064 6.00952H36.7031V9.10357H39.8064V6.00952Z" fill="black" />
  <path d="M150 16.6008H146.896V19.6949H150V16.6008Z" fill="black" />
  <defs>
    <radialGradient id="paint0_radial_7022_4356" cx="0" cy="0" r="1" gradientUnits="userSpaceOnUse"
      gradientTransform="translate(10.9824 8.81446) scale(11.1689 11.1358)">
      <stop stop-color="white" />
      <stop offset="1" stop-color="#832C42" />
    </radialGradient>
    <radialGradient id="paint1_radial_7022_4356" cx="0" cy="0" r="1" gradientUnits="userSpaceOnUse"
      gradientTransform="translate(10.9823 8.81465) scale(11.1689 11.1358)">
      <stop stop-color="white" />
      <stop offset="1" stop-color="#832C42" />
    </radialGradient>
  </defs>
</svg>