<?xml version="1.0" standalone="no"?>
<!DOCTYPE svg PUBLIC "-//W3C//DTD SVG 20010904//EN" "http://www.w3.org/TR/2001/REC-SVG-20010904/DTD/svg10.dtd">
<svg version="1.0" xmlns="http://www.w3.org/2000/svg" width="700.000000pt" height="700.000000pt"
  viewBox="0 0 700.000000 700.000000" preserveAspectRatio="xMidYMid meet">
  <metadata>
    Created by potrace 1.14, written by Peter Selinger 2001-2017
  </metadata>
  <g transform="translate(0.000000,700.000000) scale(0.100000,-0.100000)" fill="#000000" stroke="none">
    <path d="M3140 6984 c-1214 -147 -2245 -867 -2779 -1940 -173 -348 -279 -696
-337 -1099 -21 -152 -30 -587 -14 -757 76 -840 446 -1616 1050 -2202 483 -468
1096 -791 1745 -920 272 -54 349 -60 685 -61 346 0 420 6 695 60 1521 300
2665 1572 2805 3123 16 174 8 595 -15 757 -163 1176 -860 2152 -1914 2679
-353 177 -803 309 -1166 341 -38 3 -82 8 -96 11 -25 5 -26 3 -33 -51 -33 -279
-247 -1223 -406 -1783 -33 -117 -60 -219 -60 -226 0 -10 15 -11 68 -4 230 29
507 -67 607 -212 l27 -38 77 52 c82 56 195 105 309 133 95 24 324 24 412 -1
109 -30 205 -81 271 -147 l61 -59 47 39 c145 122 359 193 576 194 211 0 359
-54 480 -177 115 -116 156 -218 156 -386 0 -54 -7 -127 -17 -170 -20 -90 -131
-407 -254 -724 -83 -215 -304 -753 -313 -762 -2 -3 -99 -3 -215 -2 l-210 3 89
210 c265 619 510 1276 525 1408 14 123 -61 194 -217 204 -191 14 -364 -69
-472 -226 -40 -58 -110 -219 -185 -423 -133 -361 -386 -995 -450 -1127 l-27
-56 -207 -3 c-115 -1 -208 1 -208 5 0 4 47 118 104 253 193 454 349 852 457
1165 69 197 76 266 36 326 -68 104 -300 119 -475 30 -171 -87 -239 -190 -381
-581 -94 -257 -248 -644 -383 -965 l-94 -220 -212 -3 c-163 -2 -212 0 -212 10
0 7 47 123 104 258 263 618 516 1286 531 1406 14 102 -27 161 -130 189 -85 23
-206 16 -305 -19 -117 -40 -109 -29 -193 -278 -360 -1070 -719 -1825 -1063
-2238 -258 -309 -543 -470 -768 -432 -267 45 -416 280 -416 657 0 462 221
1016 621 1555 129 173 409 434 659 611 229 163 532 335 700 397 28 11 30 17
160 457 161 546 314 1183 390 1625 12 69 27 131 32 138 14 16 -97 15 -252 -4z
m-560 -1745 c99 -45 145 -117 145 -229 0 -57 -5 -84 -22 -115 -88 -166 -328
-183 -430 -31 -71 105 -67 206 13 312 57 77 197 107 294 63z" />
    <path d="M2532 4170 c-241 -146 -467 -325 -647 -511 -169 -175 -327 -408 -460
-681 -136 -278 -203 -507 -212 -728 -6 -151 5 -229 40 -282 32 -47 64 -47 153
-3 94 46 264 207 374 352 195 261 409 680 625 1222 78 196 255 680 255 696 0
11 -20 1 -128 -65z" />
  </g>
</svg>